<svg width="490" height="172" viewBox="0 0 490 172" fill="none" xmlns="http://www.w3.org/2000/svg">
    <path
        d="M59.6191 119.657V134.213H25.835V119.657H59.6191ZM0.913086 139.638H19.7119C19.8193 142.574 20.3923 145.009 21.4307 146.943C22.5049 148.876 24.0267 150.326 25.9961 151.293C28.0013 152.26 30.4362 152.743 33.3008 152.743C35.8789 152.743 38.0632 152.296 39.8535 151.401C41.6797 150.47 43.1657 149.055 44.3115 147.157C45.4574 145.26 46.2988 142.825 46.8359 139.853C47.373 136.881 47.6416 133.318 47.6416 129.164V124.867C47.6416 121.537 47.4447 118.583 47.0508 116.005C46.6927 113.427 46.1198 111.225 45.332 109.399C44.5801 107.537 43.6312 106.015 42.4854 104.833C41.3753 103.652 40.0684 102.774 38.5645 102.201C37.0605 101.628 35.3776 101.342 33.5156 101.342C30.1855 101.342 27.5179 101.861 25.5127 102.9C23.5075 103.938 22.0394 105.478 21.1084 107.519C20.2132 109.524 19.7119 111.995 19.6045 114.931H0.805664C1.30697 109.524 2.84668 104.708 5.4248 100.483C8.00293 96.2216 11.6195 92.8736 16.2744 90.4387C20.9652 88.0038 26.7122 86.7864 33.5156 86.7864C38.4928 86.7864 43.0046 87.6637 47.0508 89.4182C51.097 91.1728 54.5524 93.7151 57.417 97.0452C60.3174 100.375 62.5374 104.386 64.0771 109.076C65.6169 113.767 66.3867 119.067 66.3867 124.975V129.164C66.3867 135.037 65.6348 140.318 64.1309 145.009C62.6628 149.7 60.4964 153.692 57.6318 156.987C54.8031 160.281 51.3477 162.805 47.2656 164.56C43.1836 166.314 38.5286 167.192 33.3008 167.192C26.8913 167.192 21.3053 166.046 16.543 163.754C11.8164 161.427 8.09245 158.186 5.37109 154.032C2.68555 149.879 1.19954 145.081 0.913086 139.638ZM94.6924 87.8606V166.064H75.8936V87.8606H94.6924ZM139.81 87.8606L111.719 135.126H91.416L89.1602 118.1H101.997L117.036 87.8606H139.81ZM120.259 166.064L101.943 131.85L115.64 119.228L142.495 166.064H120.259ZM189.976 139.584H208.774C208.524 145.027 207.056 149.825 204.37 153.979C201.685 158.132 197.961 161.373 193.198 163.7C188.472 165.992 182.886 167.138 176.44 167.138C171.213 167.138 166.54 166.261 162.422 164.506C158.34 162.752 154.867 160.227 152.002 156.933C149.173 153.639 147.007 149.646 145.503 144.955C144.035 140.265 143.301 134.983 143.301 129.111V124.867C143.301 118.995 144.071 113.713 145.61 109.023C147.186 104.296 149.406 100.286 152.271 96.9915C155.171 93.6614 158.644 91.1191 162.69 89.3645C166.737 87.6099 171.23 86.7327 176.172 86.7327C182.975 86.7327 188.722 87.9501 193.413 90.385C198.104 92.8199 201.738 96.1679 204.316 100.429C206.895 104.654 208.416 109.47 208.882 114.877H190.083C190.011 111.941 189.51 109.488 188.579 107.519C187.648 105.514 186.18 104.01 184.175 103.007C182.17 102.004 179.502 101.503 176.172 101.503C173.844 101.503 171.821 101.933 170.103 102.792C168.384 103.652 166.951 105.012 165.806 106.874C164.66 108.736 163.8 111.153 163.228 114.125C162.69 117.061 162.422 120.606 162.422 124.76V129.111C162.422 133.264 162.673 136.809 163.174 139.745C163.675 142.682 164.481 145.081 165.591 146.943C166.701 148.805 168.133 150.183 169.888 151.078C171.678 151.938 173.862 152.367 176.44 152.367C179.305 152.367 181.722 151.92 183.691 151.025C185.661 150.094 187.183 148.697 188.257 146.835C189.331 144.937 189.904 142.52 189.976 139.584ZM283.325 87.8606V166.064H264.473V102.416H236.382V166.064H217.583V87.8606H283.325ZM348.96 151.562V166.064H307.28V151.562H348.96ZM313.994 87.8606V166.064H295.142V87.8606H313.994ZM343.589 118.906V132.924H307.28V118.906H343.589ZM349.121 87.8606V102.416H307.28V87.8606H349.121ZM387.9 139.531H368.457V124.975H387.9C390.55 124.975 392.699 124.527 394.346 123.632C395.993 122.737 397.192 121.502 397.944 119.926C398.732 118.315 399.126 116.506 399.126 114.501C399.126 112.353 398.732 110.365 397.944 108.539C397.192 106.713 395.993 105.245 394.346 104.135C392.699 102.989 390.55 102.416 387.9 102.416H375.547V166.064H356.694V87.8606H387.9C394.167 87.8606 399.556 89.0064 404.067 91.2981C408.615 93.5898 412.106 96.7408 414.541 100.751C416.976 104.726 418.193 109.273 418.193 114.394C418.193 119.443 416.976 123.847 414.541 127.607C412.106 131.366 408.615 134.303 404.067 136.415C399.556 138.492 394.167 139.531 387.9 139.531ZM466.211 87.8606V166.064H447.358V87.8606H466.211ZM489.736 87.8606V102.416H424.37V87.8606H489.736Z"
        fill="black" />
    <path fill-rule="evenodd" clip-rule="evenodd"
        d="M181.05 37.4728C179.326 37.4728 177.758 37.9352 176.348 38.7058L158.948 13.2761L139.981 33.774L126.657 13.2761L106.436 36.394C106.592 35.6234 106.592 35.0069 106.592 34.2363C106.592 28.5339 104.555 23.448 101.263 19.2868L65.8364 50.1106C70.0688 54.7341 76.3389 57.6624 83.0793 57.6624C86.3711 57.6624 89.5062 57.0459 92.3278 55.813C95.7763 54.58 98.9114 52.4224 101.419 49.6482L113.333 36.394L126.5 56.5836L145.31 36.2399L158.948 56.8918L171.802 44.4082C171.802 44.4082 171.802 44.4082 171.958 44.4082C171.802 45.1788 171.645 46.1035 171.645 46.8741C171.645 52.2682 176.034 56.5836 181.364 56.5836C182.147 56.5836 182.931 56.4295 183.558 56.2753C186.38 55.813 187.947 54.8883 190.299 53.0388L208.012 34.3904C208.169 47.1823 218.671 57.6624 231.525 57.6624C241.087 57.6624 249.238 51.96 253 43.7917H247.514C238.265 54.58 224.157 55.9671 216.476 43.3293L234.033 25.6057C234.033 25.4515 233.092 28.0716 233.249 28.5339C233.249 32.541 234.346 34.3904 237.952 36.5481C250.492 40.7093 257.232 20.828 242.341 13.4302C239.519 11.8891 235.6 10.8102 231.525 10.8102C221.649 10.8102 213.185 16.8209 209.736 25.4515L200.958 13.122L173.526 13.2761L193.277 43.1752L190.612 45.9494C189.985 41.1717 185.91 37.4728 181.05 37.4728ZM82.9226 10.8102C88.4089 10.8102 93.425 12.6597 97.5006 15.8962C97.6574 16.0503 97.9709 16.2044 98.1276 16.3585L63.0149 46.8741C58.7825 50.5729 54.3934 54.2718 50.1611 57.9706C49.8476 58.2789 49.5341 58.2789 49.2206 57.9706L29.3129 36.394V53.5012L0 67.0637V15.4338L29.3129 2.17956V21.1362L42.9504 4.64546C45.6152 1.87132 47.9665 0.484247 51.5719 0.0218901C55.8042 -0.132229 57.5285 0.484247 60.8203 3.25839C63.9554 7.11137 64.2689 11.5808 61.9176 15.4338C60.1933 18.3621 56.7447 20.5197 52.5124 20.3656C46.5558 20.0574 43.4207 14.2008 43.2639 12.1973L30.0967 28.5339C30.0967 28.688 30.0967 28.688 30.0967 28.8422C36.5235 36.394 42.9504 43.9458 49.3773 51.6518C49.6908 51.96 50.0043 51.96 50.4746 51.6518L60.9771 42.7129C60.0366 40.0928 59.4095 37.3187 59.4095 34.3904C59.4095 21.4444 69.912 10.8102 82.9226 10.8102ZM89.0359 35.4693C93.425 35.4693 97.0304 39.1681 97.0304 43.7917C97.0304 48.2612 93.425 52.1141 89.0359 52.1141C84.6468 52.1141 81.0415 48.4153 81.0415 43.7917C81.0415 39.1681 84.6468 35.4693 89.0359 35.4693Z"
        fill="#BB0000" />
</svg>